<svg width="500" height="500" viewBox="0 0 500 500" fill="none" xmlns="http://www.w3.org/2000/svg">
<path d="M91.9861 227.904C106.567 301.506 193.529 420.829 243.585 470.617V30C137.752 30 70.5334 119.617 91.9861 227.904Z" fill="#3C8536" stroke="#3C8636"/>
<g filter="url(#filter0_d)">
<path d="M199.532 98.5834C196.059 98.5834 183.506 95.3465 176.957 103.208C170.407 111.069 169.431 124.787 169.762 130.664C164.966 131.916 156.165 136.07 152.396 143.669C145.946 156.674 151.404 165.248 152.396 171.414C147.766 175.942 139 184.13 139 198.292C139 212.453 148.096 220.834 152.396 227.193C151.569 235.285 151.9 253.666 159.839 262.452C167.777 271.238 180.347 272.663 185.639 272.278C189.361 280.659 202.013 298 213.673 298C227.673 298 236 285.862 236 272.278V98.5834C236 91.0692 226.374 85 216.65 85C206.925 85 202.344 94.3446 199.532 98.5834Z" fill="#FFFBBD"/>
<path d="M236 272.278C236 285.862 227.673 298 213.673 298C202.013 298 189.361 280.659 185.639 272.278C180.347 272.663 167.777 271.238 159.839 262.452C151.9 253.666 151.569 235.285 152.396 227.193C148.096 220.834 139 212.453 139 198.292C139 184.13 147.766 175.942 152.396 171.414C151.404 165.248 145.946 156.674 152.396 143.669C156.165 136.07 164.966 131.916 169.762 130.664C169.431 124.787 170.407 111.069 176.957 103.208C183.506 95.3465 196.059 98.5834 199.532 98.5834C202.344 94.3446 206.925 85 216.65 85C226.374 85 236 91.0692 236 98.5834M236 272.278C236 264.417 236 153.206 236 98.5834M236 272.278V98.5834" stroke="#BBB77D" stroke-width="4" stroke-linecap="round" stroke-linejoin="round"/>
</g>
<path d="M395.599 227.904C381.018 301.506 294.056 420.829 244 470.617V30C349.833 30 417.052 119.617 395.599 227.904Z" fill="#3C8536" stroke="#3C8636"/>
<g filter="url(#filter1_d)">
<path d="M288.053 98.5834C291.526 98.5834 304.079 95.3465 310.628 103.208C317.178 111.069 318.154 124.787 317.823 130.664C322.619 131.916 331.42 136.07 335.189 143.669C341.639 156.674 336.181 165.248 335.189 171.414C339.819 175.942 348.585 184.13 348.585 198.292C348.585 212.453 339.489 220.834 335.189 227.193C336.015 235.285 335.685 253.666 327.746 262.452C319.807 271.238 307.238 272.663 301.946 272.278C298.224 280.659 285.572 298 273.912 298C259.912 298 251.585 285.862 251.585 272.278V98.5834C251.585 91.0692 261.211 85 270.935 85C280.66 85 285.241 94.3446 288.053 98.5834Z" fill="#FFFBBD"/>
<path d="M251.585 272.278C251.585 285.862 259.912 298 273.912 298C285.572 298 298.224 280.659 301.946 272.278C307.238 272.663 319.807 271.238 327.746 262.452C335.685 253.666 336.015 235.285 335.189 227.193C339.489 220.834 348.585 212.453 348.585 198.292C348.585 184.13 339.819 175.942 335.189 171.414C336.181 165.248 341.639 156.674 335.189 143.669C331.42 136.07 322.619 131.916 317.823 130.664C318.154 124.787 317.178 111.069 310.628 103.208C304.079 95.3465 291.526 98.5834 288.053 98.5834C285.241 94.3446 280.66 85 270.935 85C261.211 85 251.585 91.0692 251.585 98.5834M251.585 272.278C251.585 264.417 251.585 153.206 251.585 98.5834M251.585 272.278V98.5834" stroke="#BBB77D" stroke-width="4" stroke-linecap="round" stroke-linejoin="round"/>
</g>
<defs>
<filter id="filter0_d" x="127" y="75" width="121" height="237" filterUnits="userSpaceOnUse" color-interpolation-filters="sRGB">
<feFlood flood-opacity="0" result="BackgroundImageFix"/>
<feColorMatrix in="SourceAlpha" type="matrix" values="0 0 0 0 0 0 0 0 0 0 0 0 0 0 0 0 0 0 127 0"/>
<feOffset dy="2"/>
<feGaussianBlur stdDeviation="5"/>
<feColorMatrix type="matrix" values="0 0 0 0 0 0 0 0 0 0 0 0 0 0 0 0 0 0 0.25 0"/>
<feBlend mode="normal" in2="BackgroundImageFix" result="effect1_dropShadow"/>
<feBlend mode="normal" in="SourceGraphic" in2="effect1_dropShadow" result="shape"/>
</filter>
<filter id="filter1_d" x="239.585" y="75" width="121" height="237" filterUnits="userSpaceOnUse" color-interpolation-filters="sRGB">
<feFlood flood-opacity="0" result="BackgroundImageFix"/>
<feColorMatrix in="SourceAlpha" type="matrix" values="0 0 0 0 0 0 0 0 0 0 0 0 0 0 0 0 0 0 127 0"/>
<feOffset dy="2"/>
<feGaussianBlur stdDeviation="5"/>
<feColorMatrix type="matrix" values="0 0 0 0 0 0 0 0 0 0 0 0 0 0 0 0 0 0 0.25 0"/>
<feBlend mode="normal" in2="BackgroundImageFix" result="effect1_dropShadow"/>
<feBlend mode="normal" in="SourceGraphic" in2="effect1_dropShadow" result="shape"/>
</filter>
</defs>
</svg>
